<mxfile host="Electron" modified="2024-04-25T17:44:27.043Z" agent="Mozilla/5.0 (Macintosh; Intel Mac OS X 10_15_7) AppleWebKit/537.36 (KHTML, like Gecko) draw.io/24.1.0 Chrome/120.0.6099.109 Electron/28.1.0 Safari/537.36" etag="wbLAXfKuzB3n7_mUOh0H" version="24.1.0" type="device">
  <diagram name="Page-1" id="VavGo0SHp0G8SQ3ITNbX">
    <mxGraphModel dx="2120" dy="1498" grid="1" gridSize="10" guides="1" tooltips="1" connect="1" arrows="1" fold="1" page="1" pageScale="1" pageWidth="850" pageHeight="1100" math="0" shadow="0">
      <root>
        <mxCell id="0" />
        <mxCell id="1" parent="0" />
        <mxCell id="PTSGH6Z-dMRdkGdda46p-42" value="" style="group" parent="1" vertex="1" connectable="0">
          <mxGeometry x="410" y="480" width="850" height="530" as="geometry" />
        </mxCell>
        <mxCell id="PTSGH6Z-dMRdkGdda46p-40" value="" style="group;fillColor=#FAFAFA;strokeColor=none;container=0;" parent="PTSGH6Z-dMRdkGdda46p-42" vertex="1" connectable="0">
          <mxGeometry width="850" height="530" as="geometry" />
        </mxCell>
        <mxCell id="PTSGH6Z-dMRdkGdda46p-23" value="&lt;font style=&quot;font-size: 15px;&quot;&gt;&lt;b&gt;Premise&lt;/b&gt;&lt;/font&gt;" style="text;html=1;align=center;verticalAlign=middle;whiteSpace=wrap;rounded=0;container=0;" parent="PTSGH6Z-dMRdkGdda46p-42" vertex="1">
          <mxGeometry x="395" y="20" width="60" height="30" as="geometry" />
        </mxCell>
        <mxCell id="PTSGH6Z-dMRdkGdda46p-24" value="&lt;p style=&quot;line-height: 200%;&quot;&gt;&lt;font style=&quot;font-size: 14px;&quot;&gt;There are four persons. Everyone is visible to others. Each person draws a card, face unrevealed (red or black). Cara&#39;s card is shown to Vasiliki. Cara&#39;s card is shown to Conrad. Jennifer&#39;s card is shown to Conrad. Vasiliki&#39;s card is shown to Cara. It is publicly announced that someone picked a red card. It is publicly announced that Vasiliki knows whether someone picked a red card.&lt;/font&gt;&lt;/p&gt;" style="text;html=1;align=left;verticalAlign=middle;whiteSpace=wrap;rounded=0;container=0;" parent="PTSGH6Z-dMRdkGdda46p-42" vertex="1">
          <mxGeometry x="52.5" y="59" width="745" height="109.52" as="geometry" />
        </mxCell>
        <mxCell id="PTSGH6Z-dMRdkGdda46p-25" value="&lt;b&gt;&lt;font style=&quot;font-size: 15px;&quot;&gt;Hypothesis&lt;/font&gt;&lt;/b&gt;" style="text;html=1;align=center;verticalAlign=middle;whiteSpace=wrap;rounded=0;container=0;" parent="PTSGH6Z-dMRdkGdda46p-42" vertex="1">
          <mxGeometry x="395" y="210" width="60" height="30" as="geometry" />
        </mxCell>
        <mxCell id="PTSGH6Z-dMRdkGdda46p-26" value="&lt;font style=&quot;font-size: 14px;&quot;&gt;Cara can now know whether Conrad picked a red card.&lt;/font&gt;" style="text;html=1;align=left;verticalAlign=middle;whiteSpace=wrap;rounded=0;container=0;" parent="PTSGH6Z-dMRdkGdda46p-42" vertex="1">
          <mxGeometry x="262.13" y="250" width="345.74" height="30" as="geometry" />
        </mxCell>
        <mxCell id="PTSGH6Z-dMRdkGdda46p-27" value="&lt;p style=&quot;line-height: 120%;&quot;&gt;&lt;b&gt;&lt;font style=&quot;font-size: 15px;&quot;&gt;Symbolic Formulation&lt;/font&gt;&lt;/b&gt;&lt;/p&gt;" style="text;html=1;align=center;verticalAlign=middle;whiteSpace=wrap;rounded=0;container=0;" parent="PTSGH6Z-dMRdkGdda46p-42" vertex="1">
          <mxGeometry x="334.73" y="332" width="180.54" height="37.14" as="geometry" />
        </mxCell>
        <mxCell id="PTSGH6Z-dMRdkGdda46p-32" value="&lt;p style=&quot;line-height: 120%; font-size: 14px;&quot;&gt;&lt;font style=&quot;font-size: 14px;&quot;&gt;VARS 1,2,3,4&amp;nbsp;&lt;/font&gt;&lt;/p&gt;&lt;p style=&quot;line-height: 120%; font-size: 14px;&quot;&gt;&lt;font style=&quot;font-size: 14px;&quot;&gt;LAW Top&amp;nbsp;&lt;/font&gt;&lt;/p&gt;&lt;p style=&quot;line-height: 120%; font-size: 14px;&quot;&gt;&lt;font style=&quot;font-size: 14px;&quot;&gt;OBS Agenta:3 Agentb:3,4 Agentc:1&amp;nbsp;&lt;/font&gt;&lt;/p&gt;&lt;p style=&quot;line-height: 120%; font-size: 14px;&quot;&gt;&lt;font style=&quot;font-size: 14px;&quot;&gt;VALID? [ ! (1|2|3|4) ] [ ! (Agenta knows whether (1|2|3|4)) ] (Agentc knows whether 2)&lt;/font&gt;&lt;/p&gt;" style="text;html=1;align=left;verticalAlign=middle;whiteSpace=wrap;rounded=0;container=0;" parent="PTSGH6Z-dMRdkGdda46p-42" vertex="1">
          <mxGeometry x="145" y="382" width="560" height="112.09" as="geometry" />
        </mxCell>
        <mxCell id="PTSGH6Z-dMRdkGdda46p-34" value="" style="endArrow=none;dashed=1;html=1;dashPattern=1 3;strokeWidth=2;rounded=0;" parent="PTSGH6Z-dMRdkGdda46p-42" edge="1">
          <mxGeometry width="50" height="50" relative="1" as="geometry">
            <mxPoint x="50" y="187" as="sourcePoint" />
            <mxPoint x="800" y="187" as="targetPoint" />
          </mxGeometry>
        </mxCell>
        <mxCell id="PTSGH6Z-dMRdkGdda46p-35" value="" style="endArrow=none;dashed=1;html=1;dashPattern=1 3;strokeWidth=2;rounded=0;" parent="PTSGH6Z-dMRdkGdda46p-42" edge="1">
          <mxGeometry width="50" height="50" relative="1" as="geometry">
            <mxPoint x="50" y="308" as="sourcePoint" />
            <mxPoint x="800" y="308" as="targetPoint" />
          </mxGeometry>
        </mxCell>
        <mxCell id="HONRyMInFHHDnHObiPhf-35" value="" style="group" parent="1" vertex="1" connectable="0">
          <mxGeometry x="1420" y="480" width="850" height="580" as="geometry" />
        </mxCell>
        <mxCell id="HONRyMInFHHDnHObiPhf-33" value="" style="group;fillColor=#FAFAFA;strokeColor=none;container=0;" parent="HONRyMInFHHDnHObiPhf-35" vertex="1" connectable="0">
          <mxGeometry width="850" height="580" as="geometry" />
        </mxCell>
        <mxCell id="HONRyMInFHHDnHObiPhf-34" value="&lt;h1 style=&quot;margin-top: 0px; font-size: 14px; line-height: 140%;&quot;&gt;&lt;font style=&quot;font-size: 14px; font-weight: normal;&quot;&gt;You will be given a problem with a context and hypothesis. You should judge whether the hypothesis is &quot;TRUE&quot;, &quot;FALSE&quot;, or &quot;I DON&#39;T KNOW&quot; in the given context. &quot;TRUE&quot; means the hypothesis is true in the context, &quot;FALSE&quot; means the hypothesis is false in the context, and &quot;I DON&#39;T KNOW&quot; means you cannot determine the truth value of the hypothesis in the context. You should provide your answer in the form of &quot;TRUE&quot;, &quot;FALSE&quot;, or &quot;I DON&#39;T KNOW&quot;.&lt;/font&gt;&lt;/h1&gt;&lt;h1 style=&quot;margin-top: 0px; font-size: 14px; line-height: 140%;&quot;&gt;&lt;font style=&quot;font-size: 14px; font-weight: normal;&quot;&gt;------&lt;/font&gt;&lt;/h1&gt;&lt;h1 style=&quot;margin-top: 0px; font-size: 14px; line-height: 140%;&quot;&gt;&lt;font style=&quot;font-size: 14px; font-weight: normal;&quot;&gt;Example:&lt;/font&gt;&lt;/h1&gt;&lt;div style=&quot;line-height: 140%;&quot;&gt;&lt;font style=&quot;font-size: 14px; font-weight: normal;&quot;&gt;&lt;br&gt;&lt;/font&gt;&lt;/div&gt;&lt;h1 style=&quot;margin-top: 0px; font-size: 14px; line-height: 140%;&quot;&gt;&lt;font style=&quot;font-size: 14px; font-weight: normal;&quot;&gt;Context:&lt;/font&gt;&lt;/h1&gt;&lt;h1 style=&quot;margin-top: 0px; font-size: 14px; line-height: 140%;&quot;&gt;&lt;font style=&quot;font-size: 14px; font-weight: normal;&quot;&gt;{example_context}&lt;/font&gt;&lt;/h1&gt;&lt;h1 style=&quot;margin-top: 0px; font-size: 14px; line-height: 140%;&quot;&gt;&lt;font style=&quot;font-size: 14px; font-weight: normal;&quot;&gt;Hypothesis:&lt;/font&gt;&lt;/h1&gt;&lt;h1 style=&quot;margin-top: 0px; font-size: 14px; line-height: 140%;&quot;&gt;&lt;font style=&quot;font-size: 14px; font-weight: normal;&quot;&gt;{example_hypothesis}&lt;/font&gt;&lt;/h1&gt;&lt;h1 style=&quot;margin-top: 0px; font-size: 14px; line-height: 140%;&quot;&gt;&lt;font style=&quot;font-size: 14px; font-weight: normal;&quot;&gt;Answer:&lt;/font&gt;&lt;/h1&gt;&lt;h1 style=&quot;margin-top: 0px; font-size: 14px; line-height: 140%;&quot;&gt;&lt;font style=&quot;font-size: 14px; font-weight: normal;&quot;&gt;{example_answer}&lt;/font&gt;&lt;/h1&gt;&lt;h1 style=&quot;margin-top: 0px; font-size: 14px; line-height: 140%;&quot;&gt;&lt;font style=&quot;font-size: 14px; font-weight: normal;&quot;&gt;------&lt;/font&gt;&lt;/h1&gt;&lt;h1 style=&quot;margin-top: 0px; font-size: 14px; line-height: 140%;&quot;&gt;&lt;font style=&quot;font-size: 14px; font-weight: normal;&quot;&gt;Context:&amp;nbsp;&lt;/font&gt;&lt;/h1&gt;&lt;h1 style=&quot;margin-top: 0px; font-size: 14px; line-height: 140%;&quot;&gt;&lt;font style=&quot;font-size: 14px; font-weight: normal;&quot;&gt;{context}&lt;/font&gt;&lt;/h1&gt;&lt;h1 style=&quot;margin-top: 0px; font-size: 14px; line-height: 140%;&quot;&gt;&lt;font style=&quot;font-size: 14px; font-weight: normal;&quot;&gt;Hypothesis:&lt;/font&gt;&lt;/h1&gt;&lt;h1 style=&quot;margin-top: 0px; font-size: 14px; line-height: 140%;&quot;&gt;&lt;font style=&quot;font-size: 14px; font-weight: normal;&quot;&gt;{hypothesis}&lt;/font&gt;&lt;/h1&gt;&lt;h1 style=&quot;margin-top: 0px; font-size: 14px; line-height: 140%;&quot;&gt;&lt;font style=&quot;font-size: 14px; font-weight: normal;&quot;&gt;Answer:&lt;/font&gt;&lt;/h1&gt;" style="text;html=1;whiteSpace=wrap;overflow=hidden;rounded=0;" parent="HONRyMInFHHDnHObiPhf-35" vertex="1">
          <mxGeometry x="30" y="15" width="790" height="545" as="geometry" />
        </mxCell>
        <mxCell id="HONRyMInFHHDnHObiPhf-38" value="" style="group" parent="1" vertex="1" connectable="0">
          <mxGeometry x="2460" y="480" width="850" height="630" as="geometry" />
        </mxCell>
        <mxCell id="HONRyMInFHHDnHObiPhf-36" value="" style="group;fillColor=#FAFAFA;strokeColor=none;container=0;" parent="HONRyMInFHHDnHObiPhf-38" vertex="1" connectable="0">
          <mxGeometry width="850" height="630" as="geometry" />
        </mxCell>
        <mxCell id="HONRyMInFHHDnHObiPhf-37" value="&lt;h1 style=&quot;margin-top: 0px; font-size: 14px; line-height: 140%;&quot;&gt;&lt;font style=&quot;font-size: 14px; font-weight: normal;&quot;&gt;You should transform the natural language representation to the correct SMCDEL symbolic formulation. You should only output the transformed symbolic formulation as shown in the example.&lt;/font&gt;&lt;/h1&gt;&lt;h1 style=&quot;margin-top: 0px; font-size: 14px; line-height: 140%;&quot;&gt;&lt;font style=&quot;font-size: 14px; font-weight: normal;&quot;&gt;------&lt;/font&gt;&lt;/h1&gt;&lt;h1 style=&quot;margin-top: 0px; font-size: 14px; line-height: 140%;&quot;&gt;&lt;font style=&quot;font-size: 14px; font-weight: normal;&quot;&gt;=== Example Begin ===&lt;/font&gt;&lt;/h1&gt;&lt;h1 style=&quot;margin-top: 0px; font-size: 14px; line-height: 140%;&quot;&gt;&lt;font style=&quot;font-size: 14px; font-weight: normal;&quot;&gt;Natural Language Representation:&lt;/font&gt;&lt;/h1&gt;&lt;h1 style=&quot;margin-top: 0px; font-size: 14px; line-height: 140%;&quot;&gt;&lt;font style=&quot;font-size: 14px; font-weight: normal;&quot;&gt;Context:&lt;/font&gt;&lt;/h1&gt;&lt;h1 style=&quot;margin-top: 0px; font-size: 14px; line-height: 140%;&quot;&gt;&lt;font style=&quot;font-size: 14px; font-weight: normal;&quot;&gt;{example_context}&lt;/font&gt;&lt;/h1&gt;&lt;h1 style=&quot;margin-top: 0px; font-size: 14px; line-height: 140%;&quot;&gt;&lt;font style=&quot;font-size: 14px; font-weight: normal;&quot;&gt;Hypothesis:&lt;/font&gt;&lt;/h1&gt;&lt;h1 style=&quot;margin-top: 0px; font-size: 14px; line-height: 140%;&quot;&gt;&lt;font style=&quot;font-size: 14px; font-weight: normal;&quot;&gt;{example_hypothesis}&lt;/font&gt;&lt;/h1&gt;&lt;h1 style=&quot;margin-top: 0px; font-size: 14px; line-height: 140%;&quot;&gt;&lt;font style=&quot;font-size: 14px; font-weight: normal;&quot;&gt;&lt;br&gt;&lt;/font&gt;&lt;/h1&gt;&lt;h1 style=&quot;margin-top: 0px; font-size: 14px; line-height: 140%;&quot;&gt;&lt;font style=&quot;font-size: 14px; font-weight: normal;&quot;&gt;Symbolic Formulation:&lt;/font&gt;&lt;/h1&gt;&lt;h1 style=&quot;margin-top: 0px; font-size: 14px; line-height: 140%;&quot;&gt;&lt;font style=&quot;font-size: 14px; font-weight: normal;&quot;&gt;{example_sf}&lt;/font&gt;&lt;/h1&gt;&lt;h1 style=&quot;margin-top: 0px; font-size: 14px; line-height: 140%;&quot;&gt;&lt;font style=&quot;font-size: 14px; font-weight: normal;&quot;&gt;=== Example End ===&lt;/font&gt;&lt;/h1&gt;&lt;h1 style=&quot;margin-top: 0px; font-size: 14px; line-height: 140%;&quot;&gt;&lt;font style=&quot;font-size: 14px; font-weight: normal;&quot;&gt;------&lt;/font&gt;&lt;/h1&gt;&lt;h1 style=&quot;margin-top: 0px; font-size: 14px; line-height: 140%;&quot;&gt;&lt;font style=&quot;font-size: 14px; font-weight: normal;&quot;&gt;Natural Language Representation:&lt;/font&gt;&lt;/h1&gt;&lt;h1 style=&quot;margin-top: 0px; font-size: 14px; line-height: 140%;&quot;&gt;&lt;font style=&quot;font-size: 14px; font-weight: normal;&quot;&gt;Context:&lt;/font&gt;&lt;/h1&gt;&lt;h1 style=&quot;margin-top: 0px; font-size: 14px; line-height: 140%;&quot;&gt;&lt;font style=&quot;font-size: 14px; font-weight: normal;&quot;&gt;{problem_context}&lt;/font&gt;&lt;/h1&gt;&lt;h1 style=&quot;margin-top: 0px; font-size: 14px; line-height: 140%;&quot;&gt;&lt;font style=&quot;font-size: 14px; font-weight: normal;&quot;&gt;Hypothesis:&lt;/font&gt;&lt;/h1&gt;&lt;h1 style=&quot;margin-top: 0px; font-size: 14px; line-height: 140%;&quot;&gt;&lt;font style=&quot;font-size: 14px; font-weight: normal;&quot;&gt;{problem_hypothesis}&lt;/font&gt;&lt;/h1&gt;&lt;h1 style=&quot;margin-top: 0px; font-size: 14px; line-height: 140%;&quot;&gt;&lt;font style=&quot;font-size: 14px; font-weight: normal;&quot;&gt;&lt;br&gt;&lt;/font&gt;&lt;/h1&gt;&lt;h1 style=&quot;margin-top: 0px; font-size: 14px; line-height: 140%;&quot;&gt;&lt;font style=&quot;font-size: 14px; font-weight: normal;&quot;&gt;Symbolic Formulation:&lt;/font&gt;&lt;/h1&gt;" style="text;html=1;whiteSpace=wrap;overflow=hidden;rounded=0;" parent="HONRyMInFHHDnHObiPhf-38" vertex="1">
          <mxGeometry x="30" y="15" width="790" height="615" as="geometry" />
        </mxCell>
      </root>
    </mxGraphModel>
  </diagram>
</mxfile>
